<?xml version="1.0" standalone="no"?><!DOCTYPE svg PUBLIC "-//W3C//DTD SVG 1.1//EN" "http://www.w3.org/Graphics/SVG/1.1/DTD/svg11.dtd"><svg t="1556985880629" class="icon" style="" viewBox="0 0 1024 1024" version="1.1" xmlns="http://www.w3.org/2000/svg" p-id="9604" xmlns:xlink="http://www.w3.org/1999/xlink" width="200" height="200"><defs><style type="text/css"></style></defs><path d="M659.257561 479.643123c-5.740736-2.57054-11.742415-4.563937-18.379566-7.035216-0.885158 7.984842-1.614774 14.96787-2.45286 21.941688-0.400112 3.328808-0.242523 7.767902-5.188152 6.904233-1.365088-0.23843-2.827389-4.513795-2.873438-6.965631-0.273222-14.13797-0.134053-28.284127-0.134053-43.369677-7.949027 0-15.333189 0-23.177839 0 0.345877-2.958372 0.57612-4.92414 0.888228-7.59701 16.648135 0 32.993373 0 49.215813 0 0-7.743343 0-14.72944 0-22.436967-5.558588 0-10.65055 0-16.753536 0 4.173034-4.873998 7.537658-8.802462 11.330024-13.228253-7.808834-5.920838-15.172531-11.502962-20.760795-15.741488-6.039541 4.635568-11.451797 8.789159-17.05234 13.08806 6.177687 5.489003 11.360723 10.098989 17.572179 15.617668-8.746181 0-15.823352 0-22.646744 0 0-11.059871 0-21.501667 0-32.404973-7.475237 0-14.881912 0-23.462318 0 0 11.019962 0 21.660279 0 33.271711-8.522077 0-15.892937 0-23.076532 0 0 7.94391 0 14.873726 0 22.381708 7.384163 0 14.166623 0 20.887684 0 1.341552 20.598089-10.826558 50.384427-25.762705 62.551513 0-2.732222 0-4.915953 0-7.100708 0.004093-22.414454-0.113587-44.833002 0.12689-67.245409 0.038886-3.705384 1.172707-7.583707 2.597146-11.056801 3.587704-8.750274 7.628732-17.313283 11.722972-26.479018-8.810649-2.57668-16.407659-4.79725-23.9709-7.009633-0.623192 0.981349-1.125635 1.496071-1.314946 2.108007-5.865579 18.863589-13.814606 36.748899-24.774194 53.246608-0.840133 1.265827-1.698685 2.953256-1.575888 4.356206 0.867762 9.850326 1.99135 19.679162 3.170196 30.806572 3.969397-4.789063 6.985074-8.425886 9.998705-12.063733 0.466627 0.188288 0.931207 0.375553 1.39681 0.562817 0 19.996386 0 39.993796 0 59.827477 7.958236 0 15.111132 0 23.042763 0 0-4.247736 0-7.885582 0-11.525475 0.692777-0.402159 1.385554-0.804317 2.078331-1.207499 4.158708 5.066379 8.318439 10.132758 12.663389 15.430403 17.948755-19.2944 28.357805-40.975145 33.586889-65.472023 0.565887 2.286061 0.565887 4.452396 0.565887 6.616685-0.00307 12.123084-0.147356 24.249239 0.033769 36.369253 0.165775 11.256346 5.766319 16.676788 17.071783 16.894752 5.259783 0.099261 10.525707 0.149402 15.781397-0.023536 9.655898-0.320294 15.657577-4.859671 17.664276-14.115457 1.787712-8.247831 2.930743-16.646089 4.005212-25.024903C661.50269 482.947372 660.46813 480.185474 659.257561 479.643123z" p-id="9605" fill="#d81e06"></path><path d="M517.781668 449.721709c-2.998281 0-5.470584 0-7.942887 0-13.952752 0.00307-27.908574 0.145309-41.855186-0.130983-2.282992-0.045025-4.530167-1.934045-6.793716-2.967582 2.163265-0.91995 4.296854-2.536771 6.497981-2.633985 7.532542-0.329504 15.089643-0.127913 22.638558-0.127913 5.83795 0 11.677947 0 17.329656 0 0-6.486725 0-11.851909 0-17.709302-3.478211 0-6.415094-0.001023-9.350953 0-10.97903 0.001023-21.960107 0.11154-32.935044-0.125866-1.4183-0.028653-2.797714-1.849111-4.19657-2.839669 1.438766-0.95065 2.825343-2.609426 4.327553-2.721989 4.777807-0.357133 9.59757-0.139169 14.400959-0.139169 11.813023-0.001023 23.624 0 35.651917 0 0-6.303554 0-11.661574 0-17.936475-9.764368 0-19.127601 0-29.329944 0 2.695383-4.480026 4.750178-7.894792 7.155966-11.896934-7.173362-0.909717-13.527058-1.483791-19.790702-2.58589-4.336763-0.762362-6.629988 0.680497-8.527194 4.598729-1.734501 3.581565-3.954047 8.586545-7.001447 9.504449-5.24341 1.577935-11.511148 1.371228-16.917264 0.090051-2.572587-0.608866-3.912092-5.625103-6.248295-8.254995-2.064004-2.3229-4.735852-5.805204-7.14164-5.806228-7.227597-0.005117-14.454171 1.440812-22.43492 2.412951 2.308574 4.201687 4.287644 7.808834 6.801903 12.386073-10.386537 0-19.454035 0-28.823408 0 0 5.940281 0 11.298301 0 17.489291 14.922844 0 29.498789-0.202614 44.059384 0.168845 2.965535 0.074701 8.717528-2.982932 8.75539 2.723012 0.036839 5.779622-5.73562 2.673894-8.690922 2.778271-11.777207 0.416485-23.576928 0.170892-35.461582 0.170892 0 6.352672 0 11.717856 0 17.719535 13.448263 0 26.439109-0.053212 39.428932 0.027629 4.816693 0.030699 4.815669 0.177032 4.098333 6.123452-18.261886 0-36.643498 0-55.246145 0 0 6.318903 0 11.763905 0 17.644834 46.382284 0 91.971507 0 137.541288 0C517.781668 461.520406 517.781668 455.943398 517.781668 449.721709z" p-id="9606" fill="#d81e06"></path><path d="M465.530735 493.472055c16.760699 0 33.521397 0 50.540992 0 0-6.08252 0-11.451797 0-17.651997-14.486917 0-28.619771 0.242523-42.733181-0.138146-4.683663-0.12689-11.268625 3.322669-13.307047-4.867858-0.099261-0.397042-1.634217-0.605796-2.501979-0.617052-5.948467-0.064468-11.896934-0.112563-17.843355-0.00307-0.968046 0.016373-2.687197 0.745989-2.763945 1.320062-0.760315 5.662965-5.042843 4.241596-8.435096 4.272295-10.521613 0.094144-21.046297 0.033769-31.569956 0.033769-4.701059 0-9.402119 0-14.27714 0 0 6.41714 0 11.807907 0 18.019363 15.928752 0 31.496279 0 47.063805 0-14.669065 13.240532-33.354599 11.628828-51.07925 14.691578 2.101867 4.503562 4.350066 8.0708 5.453188 11.960379 2.156102 7.601103 6.863301 8.043171 13.525011 6.546077 18.063365-4.052284 36.206548-7.713667 51.831379-18.397985 17.019595 13.005172 36.939233 15.933869 56.992925 18.313051 1.40602 0.166799 3.794412-0.745989 4.349043-1.848087 3.043307-6.055914 5.654779-12.326722 8.600871-18.943406-18.809354-2.312667-37.822345-0.590446-54.096974-10.824511C465.36496 494.714346 465.447847 494.091154 465.530735 493.472055z" p-id="9607" fill="#d81e06"></path><path d="M350.367062 501.37401c7.659432-4.232386 13.384818-7.397466 19.574785-10.817348-4.08196-4.625335-7.663525-8.683759-11.5705-13.110573 1.86753-0.795107 3.38816-1.442859 4.991678-2.125403-0.847296-5.069449-1.65366-9.894328-2.192941-13.114666 9.317184-2.673894 10.233042-11.248159 15.578782-16.375936-6.260575-4.104473-11.69739-7.670688-17.625391-11.557197 10.070336-11.384259 16.595947-23.260727 12.303186-38.689083-19.196163 0-38.502842 0-59.547092 0 3.497654 6.142895-3.906975 14.169693 6.536867 17.919079-2.68515 3.492537-5.296622 6.889907-8.204853 10.672039 5.443978 3.621473 10.710925 7.125267 16.880425 11.231786-7.5878 3.712547-14.054059 7.830323-22.733725 4.810553 0-9.450214-0.01535-18.803214 0.023536-28.154167 0.00307-0.880042 0.106424-2.369972 0.563841-2.549051 9.139129-3.554959 2.862182-10.553336 4.782924-15.88782-24.147931 0-47.157949 0-70.525099 0 0 4.89651 0 9.367326 0 14.043826 2.192941 0.58226 4.275365 1.134844 6.129592 1.628077 0 12.241788 0 24.020018 0 35.660103-2.878555 0.656961-5.25569 1.200336-8.153687 1.86139 0.59761 5.074565 1.147124 9.750042 1.770316 15.051781 15.538874-1.241268 30.679682-2.453883 45.82049-3.663429 0.394995 0.788968 0.789991 1.578958 1.184986 2.367926-1.785666 1.145077-3.547795 3.230571-5.36109 3.277643-11.528545 0.300851-23.067322 0.153496-35.371531 0.153496 1.257641 5.660919 2.478443 9.378583 2.828413 13.175041 0.431834 4.696966 2.285038 6.065124 7.038286 5.528912 5.545285-0.627285 11.215414-0.147356 16.830283-0.147356 0.030699 0.350993 0.061398 0.69994 0.092097 1.050933-11.633945 2.899021-23.265843 5.798041-35.358228 8.813719 1.928928 5.119591 3.667522 9.730599 5.642499 14.97094 16.25621-4.836135 31.889227-9.487053 47.884495-14.244394-1.963721-4.45035-3.465931-7.851813-5.232154-11.854979 4.643754 0 8.17313 0 11.661574 0 0 7.970516 0 15.473382 0 24.511204-2.117216-4.22113-3.488444-6.957445-4.415557-8.804509-18.393892 5.718224-35.995747 11.189831-54.096974 16.81698 1.897206 4.859671 3.924371 10.048847 6.20327 15.882704 18.033689-6.0641 35.043051-11.785394 52.513923-17.661206 0.240476 5.307879 0.47072 10.383467 0.692777 15.282024 7.319695 0 13.824839 0 20.831403 0 0-7.976656 0-15.434497 0-24.513251 13.746045 11.820186 28.611584 17.601855 43.966263 22.281425 2.004653 0.611936 5.635336 0.575097 6.508214-0.621146 3.39737-4.665244 5.989399-9.913771 8.918096-15.011872C368.586993 506.75659 360.303346 504.310893 350.367062 501.37401zM268.011544 408.508134c2.445697-0.387832 4.994748-0.11768 7.499796-0.11768 0.158612-0.418531 0.318248-0.837063 0.47686-1.256618 3.127217 1.327225 6.251365 2.655474 9.378583 3.9827-3.217268 0.765432-6.399744 1.750873-9.657945 2.224663-2.45286 0.357133-5.040796 0.311084-7.49161-0.057305-1.224895-0.184195-2.280945-1.494024-3.412719-2.293225C265.866699 410.122908 266.839861 408.693353 268.011544 408.508134zM282.098349 443.38234c-0.506536 0.481976-1.751897 0.22922-2.663661 0.233313-4.534261 0.016373-9.068521 0.00614-14.353887 0.00614-0.094144-1.178846-0.163729-2.054795-0.234337-2.931766 6.668873-0.371459 13.336723-0.742919 20.004573-1.114378C283.957693 440.868082 283.213751 442.321174 282.098349 443.38234zM283.159516 428.088036c-5.416349 0.22001-10.85828 0.275269-16.26542-0.063445-0.9353-0.059352-1.738594-2.237966-3.557005-4.762458 8.053404 0 13.68874-0.103354 19.312819 0.101307 0.93837 0.032746 1.827621 1.391694 2.740409 2.138706C284.649446 426.403677 283.93825 428.056314 283.159516 428.088036zM326.094288 413.460927c0.221034-0.364296 0.443091-0.730639 0.664124-1.096982 7.713667 0 15.42938 0 24.522461 0-2.997258 4.278435-5.464444 7.797578-8.265228 11.794604C337.016013 420.36516 331.555662 416.913555 326.094288 413.460927zM303.153855 463.210905c3.183499-5.746876 5.539145-9.999728 8.17006-14.748883 2.040468 3.342111 4.503562 7.375976 7.379046 12.080106 6.732318-3.312436 13.467706-6.139825 19.673022-9.851349 4.155638-2.483559 7.235784-2.596123 10.866467 0.592493 2.651381 2.32904 5.784738 4.110613 10.426446 7.329928C340.256817 460.190111 322.883159 461.603294 303.153855 463.210905zM330.314394 488.754623c-3.176336-2.489699-6.003725-5.425559-10.421329-9.540265 13.016429-0.850366 24.100859-1.575888 35.184267-2.300388 0.141216 0.389879 0.281409 0.780781 0.421601 1.17066-6.823392 3.888556-13.582316 7.899908-20.536691 11.537754C333.832514 490.215901 331.449239 489.644897 330.314394 488.754623z" p-id="9608" fill="#d81e06"></path><path d="M785.982524 394.99745c-35.654987 0-70.755342 0-106.137107 0 0 18.499292 0 36.512515 0 55.094696 35.826902 0 71.096103 0 106.137107 0C785.982524 431.317584 785.982524 413.141656 785.982524 394.99745zM761.447784 429.921797c-18.739769 0-37.524563 0-56.910037 0 0-4.988608 0-9.304905 0-14.205508 18.949546 0 37.744574 0 56.910037 0C761.447784 420.354927 761.447784 424.835976 761.447784 429.921797z" p-id="9609" fill="#d81e06"></path><path d="M667.684471 525.885214c14.895215 2.467186 19.446872 1.391694 22.732702-5.715154 5.672175 2.707663 14.707951-4.922093 17.366495 6.041588 6.712875 0 13.018475 0 19.613671 0 0-22.33259 0-44.208786 0-66.476908-20.378079 0-40.088964 0-59.712867 0C667.684471 482.229012 667.684471 504.093952 667.684471 525.885214zM689.21172 478.887924c5.921861 0 11.259416 0 17.004245 0 0 7.575521 0 14.718184 0 22.230259-5.764272 0-11.119223 0-17.004245 0C689.21172 493.821002 689.21172 486.680385 689.21172 478.887924z" p-id="9610" fill="#d81e06"></path><path d="M737.418555 459.622177c0 22.55874 0 44.597642 0 67.556494 7.855906-2.982932 17.677579 4.977351 22.625255-6.319926 5.48184 0 10.907399 0 14.719207 0 6.756877 9.255786 15.244162 3.266387 22.813543 5.881952 0-23.213655 0-45.026406 0-67.118519C777.22918 459.622177 757.290099 459.622177 737.418555 459.622177zM776.601895 501.062925c-5.775529 0-11.348443 0-17.51692 0 0-7.209178 0-14.344678 0-22.238446 5.962793 0 11.535708 0 17.51692 0C776.601895 486.337578 776.601895 493.490474 776.601895 501.062925z" p-id="9611" fill="#d81e06"></path><path d="M499.340704 592.442963c-3.86195 6.339369-10.62292 8.777903-19.224815 6.479562-6.746644-1.803062-4.166895-7.697294-4.626358-12.058616-0.399089-3.792365-0.082888-7.656362-0.082888-11.742415 7.908094-1.335412 14.742743-1.656729 19.491898 5.97098 0-5.997586 0-11.995171 0-17.99378-4.993724 8.037031-11.757765 7.821114-19.474501 6.087636 0-6.08252-0.144286-11.785394 0.093121-17.472918 0.064468-1.574865 0.83297-3.86502 2.007723-4.521981 5.390766-3.019771 15.245185 0.517792 18.228117 6.133685 0.681521 1.281177 1.581005 2.448767 2.378159 3.668545 0.457417-0.10233 0.913811-0.200568 1.369181-0.300851 0-4.43807 0-8.877164 0-13.190391-14.806188 0-29.253196 0-45.083711 0 8.512867 5.407139 8.54152 5.407139 8.554823 14.811304 0.01535 10.754927-0.198521 21.5119 0.024559 32.25864 0.11768 5.640452-1.239221 9.303881-7.71469 9.530032-6.857161 0.23843-8.481145-3.580541-8.504681-9.478866-0.034792-9.148339-0.625239-18.299748-0.586353-27.445017 0.029676-7.137546-3.495607-15.727162 7.578591-19.637207-4.740968-0.901531-8.739017-0.592493-12.665436-0.981349-4.749155-0.472767-7.269553 1.04377-9.171875 5.718224-4.640684 11.398585-10.025311 22.493249-15.657577 34.914114-5.593381-12.659296-10.849071-24.253332-15.811072-35.974258-1.451045-3.421929-3.292993-4.808506-7.14164-4.711292-10.974937 0.271176-21.962154 0.062422-32.943231 0.125866-1.605564 0.008186-3.210105 0.47993-5.015214 0.769525 3.447512 3.057633 8.632594 5.47877 8.750274 8.129128 0.550538 12.227461 0.523932 24.621721-0.982372 36.743782-0.881065 7.094568-7.384163 10.323092-14.432682 9.92912-7.748459-0.437974-13.031778-6.246249-13.772651-16.057689-0.532118-7.058752-0.447184-14.176856-0.34383-21.265284 0.095167-6.493888-2.196011-14.176856 7.180525-17.530223-18.500316 0-36.999608 0-54.661838 0 2.313691 3.451605 6.307647 6.694456 6.452956 10.101035 0.630355 14.839957 0.251733 29.728009 0.007163 44.596618-0.1054 6.334253-1.462302 26.615118-7.530495 30.348131-0.710173 0.437974-0.644682 2.137682-1.084702 3.800552 1.621937-0.147356 2.522445-0.068561 3.310389-0.326434 11.067034-3.636823 17.699069-27.178958 17.979454-39.995843 0.279362-12.809721 0.252756-25.627629 0.169868-38.437351-0.039909-6.284111 3.574401-7.864092 8.863861-7.487516 4.287644 0.305968 6.551193 2.539841 6.584962 7.080241 0.078794 10.518543-0.058328 21.062669 0.632402 31.54642 0.833993 12.672599 8.257041 19.413103 20.866195 19.999456 16.6993 0.780781 25.698237-7.487516 26.719495-24.961458 0.507559-8.671479 0.409322-17.379798 0.70301-26.06765 0.202614-5.981213 4.079914-7.72697 9.308998-7.472167 5.105264 0.249686 7.293089 3.070936 6.863301 8.148571-0.867762 10.253508-1.609657 20.517248-2.473326 30.767686-0.564864 6.702642-0.064468 13.989591-8.447376 17.586505 7.273646 0 14.547292 0 21.417756 0-2.701523-3.177359-7.118104-5.969956-7.342207-9.065451-0.850366-11.733205-0.342807-23.566695-0.342807-35.362322 0.821713-0.082888 1.64138-0.168845 2.46207-0.251733 6.154151 15.156158 12.306256 30.312316 18.460407 45.468473 0.780781-0.099261 1.560539-0.200568 2.342343-0.302898 6.522541-15.231882 13.046105-30.463765 19.569669-45.69053 0.571004 0.182148 1.139961 0.363273 1.709941 0.546444 0 8.890466 0.061398 17.785026-0.019443 26.675493-0.060375 6.686269 2.408858 14.458264-7.748459 17.537387 2.737339 0.916881 4.850462 1.194196 6.964608 1.196243 20.132486 0.040932 40.263949 0.040932 60.395411 0.034792 8.714458-0.002047 12.715577-6.471375 9.170852-16.928521C501.503969 588.953496 500.408011 590.687996 499.340704 592.442963z" p-id="9612" fill="#d81e06"></path><path d="M747.578942 553.115338c0.028653-2.301411 3.03819-4.613055 4.79725-6.820322 0.700963-0.875948 1.745757-1.477651 3.004421-2.505049-15.880657-3.783155-18.892241-2.392485-24.704609 10.666922-4.144382 9.310021-8.380861 18.57297-13.010289 28.818292-5.163593-11.736275-9.685574-22.22105-14.406076-32.613727-1.267874-2.791574-2.807947-7.249087-4.80032-7.592917-5.892185-1.018188-12.077036-0.364296-18.146253-0.364296 8.223272 6.786553 8.252948 6.7886 7.58473 17.238582-0.33462 5.245457-0.483 10.531846-1.290387 15.711812-1.467418 9.448167 2.290155 20.758748-10.818372 26.78294 9.088987 0 16.413799 0 23.220818 0-2.794644-3.077076-7.255226-5.696734-7.456817-8.612128-0.825806-11.866235-0.342807-23.819451-0.342807-35.744014 0.82069-0.066515 1.643426-0.134053 2.464116-0.203638 6.125499 15.134668 12.252021 30.272407 18.377519 45.409122 0.759292-0.071631 1.515513-0.142239 2.274805-0.213871 6.689339-15.446776 13.377655-30.891506 20.066994-46.335212 1.410113 10.208482 1.408067 19.989223 1.410113 29.768941 0 6.232946 1.705848 13.262022-6.962561 16.076108 9.000983 0 18.005037 0 26.048207 0-2.271735-3.333925-6.07024-6.394628-6.325043-9.725483C747.557453 579.654731 747.415214 566.364056 747.578942 553.115338z" p-id="9613" fill="#d81e06"></path><path d="M647.125267 541.261382c-19.128625-0.140193-33.198033 13.344909-33.186777 31.805316 0.01228 18.350913 13.189367 31.498325 31.642611 31.576096 19.401847 0.079818 32.562561-12.882376 32.535956-32.047839C678.09352 554.338186 665.284822 541.389295 647.125267 541.261382zM660.476316 591.173042c-4.938466 11.686133-18.051085 12.828141-25.742239 2.695383-7.72083-10.171643-8.379838-31.118679-1.310853-41.731367 5.876836-8.827022 17.791166-9.746972 23.479714-0.732686 4.087077 6.479562 5.699804 14.518639 8.08001 20.952153C663.273006 579.78776 662.730655 585.841628 660.476316 591.173042z" p-id="9614" fill="#d81e06"></path><path d="M605.320222 592.534037c-7.750506 9.92298-20.596043 10.309789-28.954391 0.898461-8.88535-10.006891-9.24146-30.558932-0.711196-40.906584 8.635664-10.473518 23.687445-9.169829 30.317432 2.612496 0.871855 1.547236 1.862414 3.031027 2.797714 4.542447 2.797714-14.292489 0.502442-17.441196-12.327745-18.084854-5.626126-0.283455-11.477379 0.074701-16.952057 1.333365-15.221649 3.50277-24.840708 16.314538-24.289147 31.371435 0.57612 15.718975 10.166527 27.308918 26.133141 29.491626 7.740273 1.05912 15.885774-0.066515 23.752936-1.007955 4.528121-0.544398 7.870232-11.568453 5.120614-16.859959C608.45358 588.301651 606.939089 590.457753 605.320222 592.534037z" p-id="9615" fill="#d81e06"></path><path d="M525.288628 588.210577c0.167822-9.148339-0.027629-18.302818 0.060375-27.451157 0.064468-6.533797-2.172475-14.161506 7.254203-17.41152-9.112523 0-18.227094 0-28.110165 0 8.236575 6.929816 8.260111 6.929816 8.334812 16.442451 0.054235 6.863301 0.389879 13.749115-0.052189 20.584786-0.509605 7.871256 3.994979 17.641764-7.319695 22.024575 9.052149 0 18.10225 0 27.154399 0C524.98266 599.844522 525.179134 594.123228 525.288628 588.210577z" p-id="9616" fill="#d81e06"></path><path d="M543.933229 591.066619c-2.612496 0.428764-6.130615 3.899812-6.64943 6.557333-0.833993 4.272295 2.434441 7.656362 7.013727 6.705712 2.781341-0.58226 5.078659-3.476164 7.59394-5.332438-0.027629-1.096982-0.056282-2.196011-0.084934-3.296063C549.15822 594.011688 546.241804 590.68595 543.933229 591.066619z" p-id="9617" fill="#d81e06"></path></svg>