<?xml version="1.0" standalone="no"?><!DOCTYPE svg PUBLIC "-//W3C//DTD SVG 1.1//EN" "http://www.w3.org/Graphics/SVG/1.1/DTD/svg11.dtd"><svg t="1557107490548" class="icon" style="" viewBox="0 0 1024 1024" version="1.1" xmlns="http://www.w3.org/2000/svg" p-id="3213" data-spm-anchor-id="a313x.7781069.0.i17" xmlns:xlink="http://www.w3.org/1999/xlink" width="512" height="512"><defs><style type="text/css"></style></defs><path d="M844.8 0H179.2C80.2304 0 0 80.2304 0 179.2v665.6c0 98.9696 80.2304 179.2 179.2 179.2h665.6c98.9696 0 179.2-80.2304 179.2-179.2V179.2c0-98.9696-80.2304-179.2-179.2-179.2zM398.40256 592.67072c-0.01024 106.94144-76.30848 193.64864-170.42432 193.64864H199.5776v-64.55808h28.40064c62.75072 0 113.61792-57.7792 113.61792-129.09056V237.68064h56.8064v354.99008z m213.01248 193.64864H469.39136V237.68064h142.02368c117.64736 0 213.01248 122.82368 213.01248 274.31424s-95.36512 274.32448-213.01248 274.32448z" fill="#000000" p-id="3214" data-spm-anchor-id="a313x.7781069.0.i16" class=""></path><path d="M611.41504 302.22848h-85.20704v419.52256h85.20704c86.272 0 156.2112-93.92128 156.2112-209.76128 0-115.85024-69.9392-209.76128-156.2112-209.76128z" fill="#000000" p-id="3215" data-spm-anchor-id="a313x.7781069.0.i18" class="selected"></path></svg>