<?xml version="1.0" standalone="no"?><!DOCTYPE svg PUBLIC "-//W3C//DTD SVG 1.1//EN" "http://www.w3.org/Graphics/SVG/1.1/DTD/svg11.dtd"><svg t="1557112326910" class="icon" style="" viewBox="0 0 1024 1024" version="1.1" xmlns="http://www.w3.org/2000/svg" p-id="8994" xmlns:xlink="http://www.w3.org/1999/xlink" width="512" height="512"><defs><style type="text/css"></style></defs><path d="M877.714286 0 146.285714 0C65.536 0 0 65.536 0 146.285714l0 731.428571c0 80.749714 65.536 146.285714 146.285714 146.285714l731.428571 0c80.749714 0 146.285714-65.536 146.285714-146.285714L1024 146.285714C1024 65.536 958.464 0 877.714286 0zM276.845714 235.154286c35.913143 0 64.950857 26.038857 64.950857 58.221714S312.758857 351.670857 276.845714 351.670857c-35.84 0-64.950857-26.038857-64.950857-58.221714S241.005714 235.154286 276.845714 235.154286zM331.117714 585.216C313.929143 638.390857 318.244571 618.642286 250.148571 766.537143L151.478857 705.024c0 0 109.933714-100.059429 132.608-145.846857 23.917714-48.201143-26.404571-74.020571-26.404571-74.020571L182.125714 438.125714l40.813714-62.976c57.124571 42.349714 61.293714 45.860571 99.693714 84.48C352.402286 489.472 348.745143 530.944 331.117714 585.216zM867.181714 654.189714c-19.163429 180.443429-253.878857 113.371429-253.878857 113.371429L626.102857 715.995429l54.272 11.702857c100.571429 6.363429 90.697143-81.481143 90.697143-81.481143L771.072 390.656c0.877714-96.914286-91.209143-107.008-256.292571-47.908571l38.4 10.386286C549.888 364.544 537.380571 382.317714 521.508571 401.627429l220.964571 0 0 44.690286-124.342857 0 0 55.881143 123.830857 0 0 44.690286L618.130286 546.889143l0 93.769143C636.635429 634.514286 653.897143 626.102857 668.964571 614.985143l-10.971429-40.96 58.514286-18.139429 48.64 119.296L693.174857 705.024l-12.8-47.542857C648.338286 682.130286 581.485714 717.750857 464.749714 714.605714 340.187429 717.750857 372.150857 574.025143 372.150857 574.025143l3.218286-1.536 87.478857 0C462.336 590.921143 454.729143 621.056 465.115429 637.44 473.673143 650.825143 495.469714 653.165714 509.513143 653.897143 511.049143 653.970286 512.731429 653.970286 514.267429 654.043429L514.267429 546.889143 387.291429 546.889143 387.291429 502.198857l126.976 0L514.267429 446.317714 481.718857 446.317714C453.12 476.672 427.008 501.686857 427.008 501.686857L388.681143 468.114286c27.209143-28.672 54.491429-74.020571 71.241143-104.301714C446.317714 369.371429 432.274286 375.369143 417.792 381.659429 403.529143 399.579429 387.291429 418.084571 369.005714 436.224 369.810286 437.321143 306.468571 400.749714 306.468571 400.749714c65.462857-55.881143 102.180571-175.689143 102.180571-175.689143l91.062857 25.526857c0 0-7.606857 17.700571-23.113143 44.763429 364.617143-103.277714 385.828571 63.341714 385.828571 63.341714S886.418286 473.673143 867.181714 654.189714z" p-id="8995" data-spm-anchor-id="a313x.7781069.0.i23" class="selected" fill="#000000"></path></svg>