<?xml version="1.0" standalone="no"?><!DOCTYPE svg PUBLIC "-//W3C//DTD SVG 1.1//EN" "http://www.w3.org/Graphics/SVG/1.1/DTD/svg11.dtd"><svg t="1557111359129" class="icon" style="" viewBox="0 0 1024 1024" version="1.1" xmlns="http://www.w3.org/2000/svg" p-id="5226" xmlns:xlink="http://www.w3.org/1999/xlink" width="512" height="512"><defs><style type="text/css"></style></defs><path d="M942.976485 0H80.658643C36.109305 0 0 34.663814 0 77.403788v869.189425c0 42.737975 36.109305 77.406787 80.658643 77.406787h862.317842c44.539342 0 80.663642-34.652817 80.663642-77.406787V77.403788C1023.640127 34.663814 987.514827 0 942.976485 0zM254.366574 159.484931c7.714288-18.276575 27.880198-29.232723 47.755211-25.448053 18.129626 3.466781 30.276356 13.96509 34.552853 31.226022 4.32248 17.361896-1.495474 31.952767-16.073349 43.240798-1.230567 0.947667-2.521114 2.507119-2.711047 3.899629-2.046281 15.312617-2.046281 30.683213-0.610786 46.039814 0.649772 6.889578 1.811363 13.724175 2.757031 20.643743h0.345879c2.411152 10.287383 9.344715 38.17358 17.004022 52.637494 0.014995 0.015994 0.029989 0.042985 0.044984 0.069976 12.576579 26.478691 29.635581 50.049405 53.008364 68.954758 58.811324 47.543286 124.396267 59.084228 195.405303 29.305697C636.042391 409.019204 669.014799 371.084541 689.950439 323.066422c0 0 13.297325-33.648171 15.187661-55.602452 2.306189-17.331907 2.621079-34.720793 0.970659-52.205647-0.319888-3.509766-1.681409-5.806958-4.627374-8.047171-15.753462-11.986786-20.485798-33.273302-11.57593-50.592213 8.889875-17.291921 29.130759-26.701613 48.495951-22.137218 18.495498 4.372463 29.61059 15.913405 33.2783 33.775126 3.275848 15.954391-4.667359 32.743489-19.586114 41.890273-2.116256 1.30854-2.552103 2.562099-2.536108 4.942263 0.104963 15.84343 0.014995 31.683861-0.305893 47.52829-0.11396 5.415096-1.115608 10.818197-1.780374 16.874068 0 0-5.673006 26.842563-13.407286 49.156719-13.172369 35.501519-33.368269 66.893483-61.363427 93.528119-35.198625 33.495224-76.960943 55.031653-126.127659 62.672966-7.25445 1.128603-14.561881 1.823359-21.861314 2.729041h-25.948877c-0.985653-0.207927-1.956312-0.527814-2.946964-0.59879-42.12719-2.908977-80.312765-16.46921-114.530735-40.038924-44.553337-30.696208-74.885673-71.585833-92.90034-121.022453-3.831653-10.538295-9.940505-29.177742-12.436628-46.859526-0.129954-1.559452-0.129954-2.632075-0.289898-3.702698a250.272014 250.272014 0 0 1-1.841353-59.167199c0.289898-3.286844-0.579796-4.887282-3.391807-6.668655-17.117982-10.844188-23.732656-31.824812-16.058355-50.03541z m731.958671 753.195205c0 52.818431-23.457753 73.504159-61.698309 73.504159h-28.795877c7.003538-14.672842 10.935156-30.971112 10.935156-48.151072 0-56.581108-42.433082-103.635566-98.412402-113.521091 14.332961 21.301511 24.062541 62.853903 24.062541 110.639104 0 18.180608-1.4215 35.428545-3.92762 51.033059h-84.025459c-2.536108-15.603514-3.946613-32.85245-3.946613-51.033059 0-47.796197 9.720583-89.337592 24.067539-110.639104-55.980319 9.894521-98.412402 56.939982-98.412402 113.521091 0 17.17996 3.927619 33.47823 10.935156 48.151072H540.280058l6.31378-8.894873c10.820196-11.665899-5.383108-18.139623-5.383107-18.139623h-55.450506c-18.91535 1.305541-8.074161 19.445164-8.074162 19.445164l5.684002 7.574337H347.806724c7.018533-14.668843 10.936155-30.97711 10.936155-48.15607 0-56.57611-42.464071-103.631567-98.433394-113.517092 14.337959 21.302511 24.083533 62.858901 24.083533 110.635105 0 18.184607-1.4215 35.433543-3.942614 51.038057h-84.02546c-2.556101-15.603514-3.961607-32.85245-3.961607-51.038057 0-47.791198 9.734578-89.332594 24.082534-110.635105-55.985318 9.900519-98.412402 56.940982-98.412402 113.517092a111.140927 111.140927 0 0 0 10.936155 48.15607h-26.79458c-73.649108 0-63.233769-81.484353-63.233769-81.484353V670.580249c23.312804-129.414503 113.221196-49.516592 113.221195-49.516592l78.211504 83.064798c59.941927 46.33571 149.870311 46.33571 149.870311 46.33571h317.976212c63.248764 0 126.543512-57.510781 126.543512-57.510781l78.251489-79.892913c74.910664-54.298911 83.224741 94.260861 83.224742 94.260861v205.360803h-0.014995z" fill="#000000" p-id="5227" data-spm-anchor-id="a313x.7781069.0.i10" class="selected"></path></svg>